<?xml version="1.0" encoding="UTF-8"?>
<svg width="1200pt" height="1200pt" version="1.1" viewBox="0 0 1200 1200" xmlns="http://www.w3.org/2000/svg">
 <g>
  <path d="m603 158.45c-27.984 0-55.332 2.7461-81.887 7.7773l0.035157 0.046876c-17.891 3.3828-87.938 27.18-121.23 84.277-32.387 55.535-34.32 126.28-5.7344 210.27 46.391 136.31 157.54 123.84 191.66 116.46 4.7539-10.477 12.984-26.41 25.512-43.559 36.637-50.09 109.87-109.86 238.81-69.492 115.03 36.023 167.3 97.414 191.05 145.74 0.12109-4.3203 0.32422-8.6172 0.32422-12.973 0.007812-241.79-196.73-438.54-438.54-438.54zm-12.984 249.5c-22.969 0-41.594-18.613-41.594-41.578 0-22.957 18.625-41.578 41.594-41.578s41.555 18.625 41.555 41.578c0 22.965-18.586 41.578-41.555 41.578z"/>
  <path d="m1002.5 637.67c-25.703-58.934-81.66-102.27-166.33-128.79-134.45-42.121-190.57 49.957-206.22 83.832 7.1055 9.0703 16.766 22.836 25.668 40.367 28.094 55.332 48.254 147.71-46.105 244.41-84.215 86.316-162.66 105.13-216.49 104.43 62.387 34.164 133.95 53.629 209.95 53.629 174.47 0 325.43-102.41 396-250.27h-0.046875c7.8242-16.449 29.988-87.02 3.5742-147.61zm-178.64 122.4c-22.957 0-41.566-18.613-41.566-41.566 0-22.969 18.613-41.578 41.566-41.578 22.969 0 41.578 18.613 41.578 41.578 0.003906 22.957-18.609 41.566-41.578 41.566z"/>
  <path d="m603 24c-316.45 0-573 256.55-573 573 0 316.48 256.55 573 573 573 316.46 0 573-256.52 573-573 0-316.45-256.54-573-573-573zm0 1072.6c-275.46 0-499.57-224.1-499.57-499.56 0-275.46 224.11-499.56 499.57-499.56 275.46 0 499.56 224.11 499.56 499.56 0 275.46-224.1 499.56-499.56 499.56z"/>
  <path d="m576.07 844.82c98.375-100.85 41.688-192.54 18.539-221.82-11.281 2.2305-27.938 4.6211-47.605 4.6211-62.062 0-153.56-23.809-197.1-151.71-38.797-113.96-20.219-192.36 4.7148-240.07-114.77 79.16-190.17 211.51-190.17 361.16 0 102.64 35.531 197.06 94.812 271.85 15.973 18.109 65.711 62.473 126.68 66.035 64.199 3.7578 128.16-26.555 190.12-90.059zm-212.13-100.34c0-22.957 18.613-41.578 41.566-41.578 22.957 0 41.578 18.625 41.578 41.578 0 22.969-18.625 41.566-41.578 41.566-22.957 0-41.566-18.598-41.566-41.566z"/>
 </g>
</svg>
